Coordinates
version=1
nRows=26
nColumns=24
inDegrees=yes

Units are S.I. units (second, meters, Newtons, ...)
Angles are in degrees.

endheader
time	pelvis_tilt	pelvis_list	pelvis_rotation	pelvis_tx	pelvis_ty	pelvis_tz	hip_flexion_r	hip_adduction_r	hip_rotation_r	knee_angle_r	ankle_angle_r	subtalar_angle_r	mtp_angle_r	hip_flexion_l	hip_adduction_l	hip_rotation_l	knee_angle_l	ankle_angle_l	subtalar_angle_l	mtp_angle_l	lumbar_extension	lumbar_bending	lumbar_rotation
      0.92100000	     -0.86908144	     -2.61731524	     -2.51036009	     -0.20355954	      1.05383450	      0.32289321	     -5.13532637	      8.20592170	      2.47110959	    -14.76149798	     13.56660716	    -10.72355741	     -1.99600352	     24.87099403	     -2.12032718	     -4.53605455	     -5.55850463	      7.44802671	      4.27039580	     -3.23307352	      5.04208846	      5.92825188	      1.24691487
      0.92516667	     -0.82004800	     -2.58354015	     -2.49002387	     -0.19761486	      1.05328137	      0.32271418	     -5.26690624	      8.14462087	      2.26552360	    -15.33514399	     13.95269017	    -10.26918739	     -2.04500808	     24.71423805	     -2.01720634	     -4.62596870	     -5.46346994	      7.37134693	      4.84504669	     -3.34884412	      5.00453632	      5.89693628	      1.30552096
      0.92933333	     -0.82495674	     -2.58809674	     -2.52529791	     -0.19176585	      1.05266872	      0.32265263	     -5.31630515	      8.12825091	      2.19912488	    -15.93159767	     13.93706195	    -10.28756772	     -2.04882630	     24.60706351	     -1.98207505	     -4.57586403	     -5.44056682	      7.34948139	      4.91880947	     -3.35642410	      5.06207980	      5.87979189	      1.31074205
      0.93350000	     -0.82209717	     -2.58063804	     -2.56240451	     -0.18585378	      1.05210435	      0.32257717	     -5.35652627	      8.09026826	      2.08448681	    -16.56881349	     13.93149522	    -10.27733555	     -2.05158068	     24.48571289	     -1.93298419	     -4.52231290	     -5.48467578	      7.30766644	      5.02217174	     -3.36354178	      5.11295025	      5.85996479	      1.31891213
      0.93766667	     -0.79243006	     -2.55415235	     -2.45619664	     -0.17975233	      1.05157981	      0.32223452	     -5.41678225	      8.02423352	      1.65533359	    -17.22817479	     14.08829205	     -9.84619067	     -2.06000768	     24.36667555	     -1.79770242	     -4.51751700	     -5.63648065	      7.15735712	      5.45001988	     -3.40431090	      5.11956767	      5.82288081	      1.37225507
      0.94183333	     -0.77266681	     -2.55203500	     -2.52336713	     -0.17382837	      1.05111072	      0.32224863	     -5.43908618	      7.98122134	      1.59582180	    -17.93855541	     14.04476878	     -9.81489781	     -2.06066835	     24.21418902	     -1.77210055	     -4.44272931	     -5.79446237	      7.13717898	      5.52609796	     -3.40826739	      5.17130285	      5.80089590	      1.37456606
      0.94600000	     -0.72538410	     -2.53177016	     -2.47099441	     -0.16776112	      1.05067550	      0.32192609	     -5.46500111	      7.89455794	      1.17958361	    -18.69401131	     14.04202387	     -9.23971471	     -2.05537158	     24.06338638	     -1.66125165	     -4.46745746	     -6.04856873	      7.04309240	      5.84741823	     -3.43536504	      5.11307996	      5.79819012	      1.40507193
      0.95016667	     -0.66966578	     -2.51286803	     -2.49274161	     -0.16171938	      1.05032179	      0.32176561	     -5.48034284	      7.80398512	      0.91910334	    -19.49353201	     14.02383798	     -8.83932862	     -2.04472106	     23.86729516	     -1.58657298	     -4.43013098	     -6.29169592	      6.96979674	      6.02652065	     -3.45655149	      5.09151060	      5.77943962	      1.42473919
      0.95433333	     -0.62674608	     -2.51414895	     -2.55623907	     -0.15571790	      1.04997915	      0.32178114	     -5.46200660	      7.74189110	      0.79410465	    -20.33192160	     13.93745522	     -8.79615543	     -2.04203721	     23.66854345	     -1.56443805	     -4.36112976	     -6.54589867	      6.91958873	      6.08625937	     -3.45820559	      5.15650444	      5.74041677	      1.43175199
      0.95850000	     -0.57857111	     -2.49825060	     -2.48579729	     -0.14959115	      1.04964031	      0.32140308	     -5.41601282	      7.63202941	      0.30744011	    -21.20859285	     13.67911236	     -8.17565165	     -2.01397398	     23.49327920	     -1.44757396	     -4.35277158	     -6.86115145	      6.68827809	      6.22710728	     -3.46645042	      5.10547779	      5.73901351	      1.45955944
      0.96266667	     -0.52303574	     -2.47250467	     -2.49404755	     -0.14347136	      1.04938847	      0.32117699	     -5.34872843	      7.50202261	     -0.05422050	    -22.15372554	     13.49761092	     -7.71123283	     -1.97859899	     23.26818275	     -1.35539445	     -4.30883121	     -7.13342431	      6.51371690	      6.24895857	     -3.46787424	      5.09286159	      5.70785075	      1.47639321
      0.96683333	     -0.45143162	     -2.43143722	     -2.51869701	     -0.13729955	      1.04921359	      0.32087513	     -5.27309058	      7.32961303	     -0.40229690	    -23.14770955	     13.27376305	     -7.08854117	     -1.90275692	     22.98672999	     -1.23985149	     -4.14385758	     -7.34923398	      6.25525893	      6.15214061	     -3.46068915	      5.08185785	      5.69872979	      1.49289526
      0.97100000	     -0.41468994	     -2.39399000	     -2.54204275	     -0.13115603	      1.04900088	      0.32071701	     -5.11980600	      7.17428437	     -0.77159640	    -24.21455352	     13.03790462	     -6.92512882	     -1.88007247	     22.76714274	     -1.14816046	     -4.18736590	     -7.62708520	      6.12636634	      6.12911509	     -3.45709480	      5.05575246	      5.65272860	      1.49689826
      0.97516667	     -0.37714348	     -2.35611707	     -2.54893839	     -0.12499969	      1.04883110	      0.32046563	     -4.93234095	      6.99996622	     -1.18679071	    -25.32858318	     12.62302221	     -6.57142536	     -1.84697215	     22.53595604	     -1.04227533	     -4.18599908	     -7.88360963	      5.88852541	      6.08259911	     -3.45192814	      5.02459089	      5.61965379	      1.50301044
      0.97933333	     -0.28042968	     -2.35405674	     -2.47664687	     -0.11897261	      1.04873885	      0.32011547	     -4.77732365	      6.86114939	     -1.61682503	    -26.45622967	     11.94928584	     -5.79820257	     -1.75883613	     22.25678476	     -0.94566518	     -4.03819523	     -8.13923143	      5.42002484	      5.79525978	     -3.43572388	      5.05795768	      5.55491857	      1.52835199
      0.98350000	     -0.19185776	     -2.26345536	     -2.46767402	     -0.11276780	      1.04872697	      0.31946907	     -4.56719343	      6.56049905	     -2.12465168	    -27.71341806	     11.65201323	     -5.07501732	     -1.46322996	     21.89988280	     -0.72685280	     -3.64351763	     -8.24615149	      4.91125866	      4.81478318	     -3.35433742	      5.06028050	      5.52985901	      1.51713461
      0.98766667	     -0.13827108	     -2.20735589	     -2.48213362	     -0.10667071	      1.04868911	      0.31922708	     -4.28157540	      6.33700805	     -2.49601584	    -28.99897678	     10.93197879	     -4.68898104	     -1.32965813	     21.62919334	     -0.60898804	     -3.58935111	     -8.45885719	      4.60106683	      4.67426209	     -3.31388539	      5.03938119	      5.45816114	      1.51005998
      0.99183333	     -0.07939503	     -2.16031314	     -2.44242703	     -0.10066177	      1.04864573	      0.31894499	     -3.95671066	      6.12316845	     -2.92718467	    -30.35041161	     10.22056491	     -4.30027087	     -1.22406079	     21.38648985	     -0.48895873	     -3.58157565	     -8.72300393	      4.30026387	      4.43627335	     -3.28443501	      4.97980852	      5.32383868	      1.51536933
      0.99600000	     -0.00729178	     -2.03979442	     -2.47845870	     -0.09445565	      1.04873773	      0.31848531	     -3.61676136	      5.77670120	     -3.30871891	    -31.75292514	      9.35076867	     -3.80843392	     -0.98154761	     21.03908414	     -0.27995407	     -3.30432313	     -8.82480872	      3.82934595	      3.79071240	     -3.21599546	      5.07847878	      5.31023878	      1.49924127
      1.00016667	      0.02617917	     -1.94240932	     -2.46133726	     -0.08841896	      1.04874035	      0.31806380	     -3.18212178	      5.46997928	     -3.71871386	    -33.22739549	      8.47368493	     -3.40724517	     -0.74620330	     20.79673266	     -0.09703959	     -3.15503994	     -9.03764326	      3.47201742	      3.27474893	     -3.14786142	      5.06651597	      5.18034652	      1.48613973
      1.00433333	      0.07231058	     -1.85208800	     -2.43048868	     -0.08251142	      1.04876520	      0.31770100	     -2.71624960	      5.17307019	     -4.10281965	    -34.75822593	      7.57016290	     -3.06070784	     -0.57255260	     20.57171039	      0.06664592	     -3.06515872	     -9.30899295	      3.19215022	      2.89794509	     -3.09891291	      4.97607979	      4.97486224	      1.48028673
      1.00850000	      0.13929624	     -1.71967146	     -2.43448483	     -0.07653885	      1.04888203	      0.31732065	     -2.24077841	      4.81275566	     -4.44043001	    -36.32782120	      6.52745418	     -2.72399867	     -0.39973062	     20.29643970	      0.27066392	     -2.92414937	     -9.53110719	      2.91305937	      2.47840203	     -3.05193791	      4.93790342	      4.81208362	      1.46561801
      1.01266667	      0.14991996	     -1.55124178	     -2.40740003	     -0.07049316	      1.04893371	      0.31659268	     -1.67088565	      4.37437282	     -4.84116249	    -37.95136511	      5.48568354	     -2.59881843	      0.23020673	     20.05441422	      0.56006055	     -2.48368847	     -9.68762266	      2.38781989	      1.30880828	     -2.88147783	      5.06251665	      4.73367061	      1.39502903
      1.01683333	      0.22832132	     -1.40358926	     -2.40562068	     -0.06469047	      1.04907627	      0.31632577	     -1.13228840	      4.00429227	     -5.09585815	    -39.60397293	      4.43903746	     -2.24671473	      0.37846228	     19.81247486	      0.75611890	     -2.47291231	     -9.99914098	      2.29864079	      1.22322849	     -2.83795724	      4.92299188	      4.45576266	      1.38553711
      1.02100000	      0.30792260	     -1.20075447	     -2.40287964	     -0.05866602	      1.04929193	      0.31588468	     -0.58945703	      3.54667027	     -5.36579129	    -41.23312540	      3.07599046	     -2.02186102	      0.62653960	     19.53500460	      1.03095854	     -2.41774920	    -10.25710761	      2.13335982	      0.83471682	     -2.77154541	      5.00054381	      4.31685253	      1.35538837
      1.02516667	      0.35389572	     -1.00240302	     -2.40504301	     -0.05282810	      1.04944339	      0.31545266	      0.03915192	      3.09884190	     -5.58395426	    -42.91942011	      1.79900291	     -1.91290275	      0.90072577	     19.31177060	      1.29427827	     -2.28733792	    -10.53680532	      1.97346132	      0.40577376	     -2.70070463	      4.98139285	      4.07605212	      1.32410209
